<svg width="38" height="38" viewBox="0 0 38 38" fill="none" xmlns="http://www.w3.org/2000/svg">
<rect x="-0.00805664" y="0.5271" width="37.024" height="37.024" rx="10.68" fill="#F6F6F6"/>
<path d="M18.4657 15.0026C16.2546 15.0026 14.4711 16.786 14.4711 18.9971C14.4711 21.2082 16.2546 22.9917 18.4657 22.9917C20.6768 22.9917 22.4603 21.2082 22.4603 18.9971C22.4603 16.786 20.6768 15.0026 18.4657 15.0026ZM18.4657 21.5941C17.0368 21.5941 15.8687 20.4295 15.8687 18.9971C15.8687 17.5648 17.0334 16.4001 18.4657 16.4001C19.898 16.4001 21.0627 17.5648 21.0627 18.9971C21.0627 20.4295 19.8946 21.5941 18.4657 21.5941ZM23.5554 14.8392C23.5554 15.3572 23.1382 15.7709 22.6237 15.7709C22.1057 15.7709 21.692 15.3537 21.692 14.8392C21.692 14.3246 22.1091 13.9075 22.6237 13.9075C23.1382 13.9075 23.5554 14.3246 23.5554 14.8392ZM26.2011 15.7848C26.142 14.5367 25.8569 13.4312 24.9425 12.5203C24.0317 11.6094 22.9261 11.3244 21.678 11.2618C20.3917 11.1888 16.5362 11.1888 15.2499 11.2618C14.0053 11.3209 12.8997 11.606 11.9854 12.5168C11.0711 13.4277 10.7895 14.5332 10.7269 15.7813C10.6539 17.0676 10.6539 20.9232 10.7269 22.2095C10.786 23.4576 11.0711 24.5631 11.9854 25.474C12.8997 26.3848 14.0018 26.6699 15.2499 26.7325C16.5362 26.8055 20.3917 26.8055 21.678 26.7325C22.9261 26.6734 24.0317 26.3883 24.9425 25.474C25.8534 24.5631 26.1385 23.4576 26.2011 22.2095C26.2741 20.9232 26.2741 17.0711 26.2011 15.7848ZM24.5393 23.5897C24.2681 24.2711 23.7431 24.796 23.0582 25.0707C22.0327 25.4775 19.5991 25.3836 18.4657 25.3836C17.3323 25.3836 14.8953 25.474 13.8732 25.0707C13.1918 24.7995 12.6668 24.2746 12.3921 23.5897C11.9854 22.5641 12.0793 20.1305 12.0793 18.9971C12.0793 17.8638 11.9889 15.4267 12.3921 14.4046C12.6633 13.7232 13.1883 13.1982 13.8732 12.9236C14.8988 12.5168 17.3323 12.6107 18.4657 12.6107C19.5991 12.6107 22.0361 12.5203 23.0582 12.9236C23.7396 13.1948 24.2646 13.7197 24.5393 14.4046C24.946 15.4302 24.8521 17.8638 24.8521 18.9971C24.8521 20.1305 24.946 22.5676 24.5393 23.5897Z" fill="#2A2F2F"/>
</svg>
