<svg width="38" height="38" viewBox="0 0 38 38" fill="none" xmlns="http://www.w3.org/2000/svg">
<rect x="0.976074" y="0.5271" width="37.024" height="37.024" rx="10.68" fill="#F6F6F6"/>
<path d="M15.8389 15.7711V24.7991H13.4276V15.7711H15.8389ZM13.2774 13.4182C13.2774 13.0678 13.3998 12.7785 13.6445 12.5504C13.8893 12.3224 14.2175 12.2084 14.6291 12.2084C15.0351 12.2084 15.3605 12.3224 15.6053 12.5504C15.8556 12.7785 15.9808 13.0678 15.9808 13.4182C15.9808 13.7686 15.8556 14.0579 15.6053 14.2859C15.3605 14.514 15.0351 14.628 14.6291 14.628C14.2175 14.628 13.8893 14.514 13.6445 14.2859C13.3998 14.0579 13.2774 13.7686 13.2774 13.4182ZM20.5194 17.6985V24.7991H18.1164V15.7711H20.3692L20.5194 17.6985ZM20.169 19.968H19.5182C19.5182 19.3005 19.6044 18.6998 19.7768 18.1658C19.9493 17.6262 20.1912 17.1673 20.5027 16.7891C20.8142 16.4053 21.1841 16.1132 21.6125 15.913C22.0463 15.7072 22.5303 15.6043 23.0643 15.6043C23.487 15.6043 23.8736 15.6654 24.2241 15.7878C24.5745 15.9102 24.8749 16.1049 25.1252 16.3719C25.3811 16.6389 25.5757 16.9921 25.7092 17.4315C25.8483 17.871 25.9178 18.4078 25.9178 19.0419V24.7991H23.4981V19.0335C23.4981 18.633 23.4425 18.3215 23.3313 18.099C23.22 17.8765 23.0559 17.7208 22.839 17.6318C22.6276 17.5372 22.3662 17.4899 22.0547 17.4899C21.7321 17.4899 21.4511 17.5539 21.212 17.6819C20.9783 17.8098 20.7836 17.9878 20.6279 18.2159C20.4777 18.4384 20.3637 18.6998 20.2858 19.0002C20.2079 19.3005 20.169 19.6232 20.169 19.968Z" fill="#2A2F2F"/>
</svg>
