<svg width="38" height="38" viewBox="0 0 38 38" fill="none" xmlns="http://www.w3.org/2000/svg">
<rect x="0.983887" y="0.5271" width="37.024" height="37.024" rx="10.68" fill="#F6F6F6"/>
<path d="M28.3463 15.5218C28.3576 15.68 28.3576 15.8381 28.3576 15.9962C28.3576 20.8189 24.6869 26.3758 17.978 26.3758C15.9111 26.3758 13.9911 25.7771 12.376 24.7381C12.6696 24.772 12.952 24.7833 13.2569 24.7833C14.9624 24.7833 16.5323 24.2073 17.786 23.2247C16.1822 23.1908 14.8381 22.1404 14.3751 20.6947C14.601 20.7286 14.8268 20.7512 15.0641 20.7512C15.3916 20.7512 15.7191 20.706 16.0241 20.6269C14.3525 20.2881 13.0988 18.8198 13.0988 17.0466V17.0014C13.5844 17.2725 14.1492 17.4419 14.7478 17.4645C13.7651 16.8094 13.1214 15.6913 13.1214 14.4263C13.1214 13.7486 13.3021 13.1274 13.6183 12.5853C15.4141 14.799 18.1135 16.2447 21.1404 16.4028C21.0839 16.1317 21.05 15.8494 21.05 15.567C21.05 13.5566 22.6764 11.9189 24.6981 11.9189C25.7485 11.9189 26.6972 12.3594 27.3636 13.071C28.1881 12.9129 28.9787 12.6079 29.679 12.19C29.4079 13.0371 28.8319 13.7487 28.0752 14.2004C28.8093 14.1214 29.5209 13.918 30.1759 13.6357C29.679 14.3585 29.0578 15.0023 28.3463 15.5218Z" fill="#2A2F2F"/>
</svg>
